<svg width="168" height="40" viewBox="0 0 168 40" fill="none" xmlns="http://www.w3.org/2000/svg">
<path d="M35.4008 2.16302L20.7719 2.18289L17.7201 7.04933L14.6486 2.18289H0.019689L0 2.16302V16.9212L4.8238 20L0 23.0788V37.837H0.019689L14.6486 37.8171L17.7004 32.9507L20.7522 37.8171H35.3811L35.4008 37.837V23.0788L30.577 20L35.4008 16.9212V2.16302ZM28.8247 23.7144V31.1829H28.805L21.4019 31.163H17.7201H14.0382H6.63518L6.61549 31.1829V8.81714H6.63518L14.0382 8.837H14.1761L17.6019 14.2795L21.0278 8.837H21.4216H28.8247H28.8443V16.2658V23.7144H28.8247Z" fill="#6A2C39"/>
<path d="M50.6389 6.417V17H47.8459V3.396H52.0259L54.4959 14.226L56.8709 3.396H61.0889V17H58.2959V6.417L55.8829 17H53.0899L50.6389 6.417ZM72.2561 3.187C74.1815 3.187 75.7268 3.80133 76.8921 5.03C78.1588 6.36 78.7921 8.08267 78.7921 10.198C78.7921 12.288 78.1588 14.0107 76.8921 15.366C75.7395 16.5947 74.1941 17.209 72.2561 17.209C70.3055 17.209 68.7538 16.5947 67.6011 15.366C66.3345 14.0107 65.7011 12.288 65.7011 10.198C65.7011 8.108 66.3345 6.38533 67.6011 5.03C68.7665 3.80133 70.3181 3.187 72.2561 3.187ZM72.2561 5.581C71.0401 5.581 70.0838 6.056 69.3871 7.006C68.7918 7.82933 68.4941 8.89333 68.4941 10.198C68.4941 11.6927 68.8805 12.8643 69.6531 13.713C70.3245 14.4477 71.1921 14.815 72.2561 14.815C73.4721 14.815 74.4221 14.34 75.1061 13.39C75.7015 12.5667 75.9991 11.5027 75.9991 10.198C75.9991 8.70333 75.6128 7.53167 74.8401 6.683C74.1688 5.94833 73.3075 5.581 72.2561 5.581ZM93.3001 7.5H90.6781C90.5895 6.11933 89.6395 5.429 87.8281 5.429C87.1061 5.429 86.5298 5.57467 86.0991 5.866C85.6811 6.15733 85.4721 6.55 85.4721 7.044C85.4721 7.52533 85.6495 7.88633 86.0041 8.127C86.3588 8.36767 87.0428 8.583 88.0561 8.773L90.1841 9.172C91.4381 9.41267 92.3501 9.82433 92.9201 10.407C93.4901 10.9897 93.7751 11.813 93.7751 12.877C93.7751 14.3337 93.2178 15.442 92.1031 16.202C91.1405 16.8733 89.8421 17.209 88.2081 17.209C86.3461 17.209 84.9275 16.7783 83.9521 15.917C83.1035 15.1697 82.6411 14.131 82.5651 12.801H85.2821C85.3835 14.245 86.4031 14.967 88.3411 14.967C89.2025 14.967 89.8738 14.815 90.3551 14.511C90.8491 14.1943 91.0961 13.7637 91.0961 13.219C91.0961 12.687 90.8998 12.2753 90.5071 11.984C90.1271 11.6927 89.4685 11.4583 88.5311 11.281L86.6311 10.92C85.2505 10.6667 84.2625 10.2677 83.6671 9.723C83.0845 9.16567 82.7931 8.36767 82.7931 7.329C82.7931 5.923 83.3061 4.859 84.3321 4.137C85.2188 3.50367 86.4221 3.187 87.9421 3.187C89.7788 3.187 91.1595 3.605 92.0841 4.441C92.8821 5.17567 93.2875 6.19533 93.3001 7.5ZM106.244 14.264H101.152L100.24 17H97.3903L102.216 3.396H105.313L110.025 17H107.137L106.244 14.264ZM105.484 11.927L103.717 6.607L101.931 11.927H105.484ZM117.055 3.396V17H114.262V3.396H117.055ZM133.603 7.937H130.943C130.576 6.36633 129.607 5.581 128.036 5.581C126.858 5.581 125.952 6.04967 125.319 6.987C124.774 7.81033 124.502 8.906 124.502 10.274C124.502 11.8193 124.844 12.9973 125.528 13.808C126.123 14.5047 126.928 14.853 127.941 14.853C128.815 14.853 129.512 14.625 130.031 14.169C130.55 13.713 130.854 13.0607 130.943 12.212H133.66C133.571 13.8587 132.938 15.1317 131.76 16.031C130.747 16.8163 129.448 17.209 127.865 17.209C125.838 17.209 124.268 16.4997 123.153 15.081C122.19 13.8523 121.709 12.231 121.709 10.217C121.709 7.91167 122.342 6.12567 123.609 4.859C124.711 3.74433 126.149 3.187 127.922 3.187C130.025 3.187 131.614 3.89 132.691 5.296C133.223 5.99267 133.527 6.873 133.603 7.937ZM50.6389 26.417V37H47.8459V23.396H52.0259L54.4959 34.226L56.8709 23.396H61.0889V37H58.2959V26.417L55.8829 37H53.0899L50.6389 26.417ZM69.1401 23.396V37H66.3471V23.396H69.1401ZM77.1951 23.396V34.663H83.7121V37H74.4021V23.396H77.1951ZM90.668 23.396V34.663H97.185V37H87.875V23.396H90.668ZM113.546 37H111.038L108.739 26.398L106.535 37H104.008L100.17 23.396H103.134L105.243 33.599L107.352 23.396H110.107L112.311 33.618L114.344 23.396H117.308L113.546 37ZM127.335 23.187C129.261 23.187 130.806 23.8013 131.971 25.03C133.238 26.36 133.871 28.0827 133.871 30.198C133.871 32.288 133.238 34.0107 131.971 35.366C130.819 36.5947 129.273 37.209 127.335 37.209C125.385 37.209 123.833 36.5947 122.68 35.366C121.414 34.0107 120.78 32.288 120.78 30.198C120.78 28.108 121.414 26.3853 122.68 25.03C123.846 23.8013 125.397 23.187 127.335 23.187ZM127.335 25.581C126.119 25.581 125.163 26.056 124.466 27.006C123.871 27.8293 123.573 28.8933 123.573 30.198C123.573 31.6927 123.96 32.8643 124.732 33.713C125.404 34.4477 126.271 34.815 127.335 34.815C128.551 34.815 129.501 34.34 130.185 33.39C130.781 32.5667 131.078 31.5027 131.078 30.198C131.078 28.7033 130.692 27.5317 129.919 26.683C129.248 25.9483 128.387 25.581 127.335 25.581ZM141.273 31.604V37H138.48V23.396H145.776C146.929 23.396 147.809 23.7063 148.417 24.327C149.101 25.0237 149.443 25.942 149.443 27.082C149.443 28.7287 148.671 29.8497 147.125 30.445C147.999 30.787 148.531 31.2113 148.721 31.718C148.861 32.0853 148.962 33.3077 149.025 35.385C149.038 35.9043 149.234 36.2717 149.614 36.487V37H146.612C146.334 36.4807 146.194 35.7143 146.194 34.701C146.194 34.4477 146.201 34.1373 146.213 33.77C146.213 33.5167 146.213 33.333 146.213 33.219C146.213 32.1423 145.637 31.604 144.484 31.604H141.273ZM141.273 29.267H144.655C145.365 29.267 145.859 29.153 146.137 28.925C146.479 28.6337 146.65 28.1523 146.65 27.481C146.65 26.835 146.479 26.3727 146.137 26.094C145.846 25.8533 145.352 25.733 144.655 25.733H141.273V29.267ZM157.158 32.459V37H154.365V23.396H157.158V29.381L162.478 23.396H165.784L160.35 29.248L166.354 37H163.01L158.564 30.996L157.158 32.459Z" fill="#6A2C39"/>
</svg>
